<svg 
 xmlns="http://www.w3.org/2000/svg"
 xmlns:xlink="http://www.w3.org/1999/xlink"
 width="14px" height="10px">
<path fill-rule="evenodd"  opacity="0.702" fill="rgb(68, 73, 75)"
 d="M13.841,8.494 C13.799,8.515 13.754,8.525 13.708,8.525 C13.648,8.525 13.588,8.507 13.538,8.472 C12.274,7.606 10.523,6.387 9.361,5.500 C9.293,5.449 9.253,5.371 9.251,5.289 C9.250,5.206 9.287,5.127 9.353,5.073 C10.603,4.049 12.261,2.707 13.520,1.691 C13.606,1.621 13.727,1.605 13.831,1.651 C13.934,1.696 14.000,1.795 14.000,1.903 L14.000,8.247 C14.000,8.351 13.939,8.447 13.841,8.494 ZM7.423,5.939 C7.290,6.053 7.148,6.110 7.000,6.110 C6.852,6.110 6.709,6.052 6.576,5.937 C5.585,5.087 2.214,2.361 0.292,0.811 C0.173,0.715 0.154,0.545 0.251,0.428 C0.475,0.156 0.809,-0.001 1.167,-0.001 L12.833,-0.001 C13.191,-0.001 13.525,0.156 13.749,0.428 C13.846,0.545 13.827,0.715 13.708,0.811 C11.786,2.361 8.415,5.088 7.423,5.939 ZM0.480,1.691 C1.738,2.707 3.397,4.049 4.647,5.073 C4.713,5.127 4.750,5.206 4.749,5.289 C4.747,5.371 4.707,5.449 4.639,5.500 C3.478,6.387 1.727,7.606 0.462,8.472 C0.411,8.507 0.352,8.525 0.292,8.525 C0.246,8.525 0.200,8.515 0.159,8.494 C0.061,8.447 -0.000,8.351 -0.000,8.247 L-0.000,1.903 C-0.000,1.795 0.066,1.696 0.169,1.651 C0.272,1.605 0.394,1.621 0.480,1.691 ZM5.171,5.807 C5.280,5.722 5.439,5.724 5.546,5.813 C5.809,6.031 6.030,6.216 6.186,6.350 C6.667,6.764 7.333,6.764 7.814,6.351 C7.970,6.217 8.190,6.032 8.454,5.813 C8.562,5.725 8.720,5.722 8.829,5.807 C10.172,6.845 12.421,8.396 13.642,9.228 C13.711,9.275 13.754,9.347 13.763,9.426 C13.771,9.506 13.743,9.585 13.686,9.643 C13.465,9.870 13.154,10.000 12.833,10.000 L1.167,10.000 C0.846,10.000 0.534,9.870 0.314,9.643 C0.257,9.584 0.229,9.505 0.237,9.426 C0.246,9.347 0.290,9.275 0.358,9.228 C1.581,8.394 3.832,6.841 5.171,5.807 Z"/>
</svg>
