<svg 
 xmlns="http://www.w3.org/2000/svg"
 xmlns:xlink="http://www.w3.org/1999/xlink"
 width="12px" height="12px">
<path fill-rule="evenodd"  opacity="0.702" fill="rgb(68, 73, 75)"
 d="M11.037,7.876 C10.302,7.876 9.581,7.761 8.897,7.535 C8.562,7.421 8.151,7.526 7.946,7.736 L6.597,8.754 C5.032,7.919 4.068,6.956 3.244,5.403 L4.233,4.088 C4.490,3.832 4.582,3.457 4.472,3.106 C4.245,2.419 4.129,1.698 4.129,0.963 C4.129,0.432 3.698,-0.000 3.167,-0.000 L0.963,-0.000 C0.432,-0.000 -0.000,0.432 -0.000,0.963 C-0.000,7.049 4.951,12.000 11.037,12.000 C11.568,12.000 12.000,11.568 12.000,11.036 L12.000,8.839 C12.000,8.308 11.568,7.876 11.037,7.876 Z"/>
</svg>
